<svg width="352" height="305" viewBox="0 0 352 305" fill="none" xmlns="http://www.w3.org/2000/svg">
<path d="M342.9 301.7H347.23L345.065 297.95L178.065 8.74983L175.899 4.99956L173.735 8.75039L6.83471 297.95L4.67078 301.7H9H71.5H74V299.2V284.9V282.4H71.5H38.0318L75.2428 218H78.1375C80.6506 234.027 87.0828 249.239 96.8927 262.29C98.0311 263.842 99.2687 265.388 100.604 266.93C112.707 281.082 128.4 291.44 145.935 297.08L145.94 297.082C155.59 300.162 165.647 301.7 175.8 301.7C185.951 301.7 196.005 300.162 205.653 297.084C223.303 291.542 238.998 281.077 250.999 266.926C252.332 265.388 253.567 263.844 254.703 262.296C264.613 249.241 271.049 234.026 273.562 218H276.457L313.668 282.4H278.5H276V284.9V299.2V301.7H278.5H278.7H342.9ZM255.325 209.646L255.315 209.717L255.309 209.787C253.953 225.672 247.855 240.589 237.679 253C236.58 254.298 235.519 255.552 234.268 256.899L234.268 256.899C219.24 273.091 197.903 282.4 175.9 282.4C153.897 282.4 132.56 273.091 117.532 256.899C116.323 255.589 115.193 254.363 114.166 253.055L114.153 253.039L114.14 253.024C104.055 240.611 97.9487 225.686 96.4912 209.79C96.3917 208.496 96.293 207.212 96.1945 205.734L96.1917 205.692L96.1876 205.651C96.1022 204.798 96.1 203.926 96.1 202.7C96.1 190.013 99.1978 177.415 105.008 166.173C106.19 164.006 107.351 161.978 108.596 160.062L108.603 160.052L108.61 160.042C123.35 136.864 148.454 123.1 175.9 123.1C202.202 123.1 226.422 135.835 241.421 157.4H224.603C211.982 143.791 194.44 136.1 175.9 136.1C139.219 136.1 109.3 166.019 109.3 202.7C109.3 229.929 126.331 254.855 151.693 264.73C159.378 267.741 167.485 269.3 175.8 269.3C184.107 269.3 192.318 267.743 199.914 264.727C218.62 257.449 233.36 241.668 239.386 222.448L239.386 222.446C239.902 220.795 240.324 219.219 240.644 217.625L242.037 211.559L242.739 208.5H239.6H225H223.023L222.567 210.424L221.667 214.224L221.666 214.231L221.664 214.238C221.391 215.419 221.026 216.607 220.567 217.803L220.549 217.849L220.533 217.895C213.976 237.188 196.023 250.1 175.7 250.1C149.584 250.1 128.4 228.823 128.4 202.8C128.4 176.781 149.681 155.5 175.7 155.5C188.705 155.5 200.849 160.712 209.88 170.114C211.021 171.352 212.074 172.595 213.164 173.882L214.638 175.749L215.389 176.7H216.6H251.245C254.146 185.028 255.6 193.779 255.6 202.8V202.806V202.813V202.819V202.826V202.832V202.839V202.845V202.852V202.858V202.864V202.871V202.877V202.884V202.89V202.897V202.903V202.91V202.916V202.922V202.929V202.935V202.942V202.948V202.955V202.961V202.968V202.974V202.98V202.987V202.993V203V203.006V203.013V203.019V203.026V203.032V203.038V203.045V203.051V203.058V203.064V203.071V203.077V203.084V203.09V203.096V203.103V203.109V203.116V203.122V203.129V203.135V203.141V203.148V203.154V203.161V203.167V203.174V203.18V203.187V203.193V203.199V203.206V203.212V203.219V203.225V203.232V203.238V203.244V203.251V203.257V203.264V203.27V203.277V203.283V203.29V203.296V203.302V203.309V203.315V203.322V203.328V203.335V203.341V203.347V203.354V203.36V203.367V203.373V203.38V203.386V203.392V203.399V203.405V203.412V203.418V203.425V203.431V203.437V203.444V203.45V203.457V203.463V203.469V203.476V203.482V203.489V203.495V203.502V203.508V203.514V203.521V203.527V203.534V203.54V203.546V203.553V203.559V203.566V203.572V203.579V203.585V203.591V203.598V203.604V203.611V203.617V203.623V203.63V203.636V203.643V203.649V203.655V203.662V203.668V203.675V203.681V203.688V203.694V203.7V203.707V203.713V203.719V203.726V203.732V203.739V203.745V203.751V203.758V203.764V203.771V203.777V203.783V203.79V203.796V203.803V203.809V203.815V203.822V203.828V203.835V203.841V203.847V203.854V203.86V203.867V203.873V203.879V203.886V203.892V203.898V203.905V203.911V203.918V203.924V203.93V203.937V203.943V203.949V203.956V203.962V203.969V203.975V203.981V203.988V203.994V204V204.007V204.013V204.02V204.026V204.032V204.039V204.045V204.051V204.058V204.064V204.07V204.077V204.083V204.089V204.096V204.102V204.109V204.115V204.121V204.128V204.134V204.14V204.147V204.153V204.159V204.166V204.172V204.178V204.185V204.191V204.197V204.204V204.21V204.216V204.223V204.229V204.235V204.242V204.248V204.254V204.261V204.267V204.273V204.28V204.286V204.292V204.299V204.305V204.311V204.318V204.324V204.33V204.337V204.343V204.349V204.356V204.362V204.368V204.374V204.381V204.387V204.393V204.4V204.406V204.412V204.419V204.425V204.431V204.438V204.444V204.45V204.456V204.463V204.469V204.475V204.482V204.488V204.494V204.5V204.507V204.513V204.519V204.526V204.532V204.538V204.544V204.551V204.557V204.563V204.57V204.576V204.582V204.588V204.595V204.601V204.607V204.613V204.62V204.626V204.632V204.638V204.645V204.651V204.657V204.663V204.67V204.676V204.682V204.688V204.695V204.701V204.707V204.713V204.72V204.726V204.732V204.738V204.745V204.751V204.757V204.763V204.77V204.776V204.782V204.788V204.795V204.801V204.807V204.813V204.819V204.826V204.832V204.838V204.844V204.851V204.857V204.863V204.869V204.875V204.882V204.888V204.894V204.9V204.906V204.913V204.919V204.925V204.931V204.937V204.944V204.95V204.956V204.962V204.968V204.974V204.981V204.987V204.993V204.999V205.005V205.012V205.018V205.024V205.03V205.036V205.042V205.049V205.055V205.061V205.067V205.073V205.079V205.086V205.092V205.098V205.104V205.11V205.116V205.122V205.129V205.135V205.141V205.147V205.153V205.159V205.165V205.172V205.178V205.184V205.19V205.196V205.202V205.208V205.214V205.221V205.227V205.233V205.239V205.245V205.251V205.257V205.263V205.269V205.276V205.282V205.288V205.294V205.3V205.306V205.312V205.318V205.324V205.33V205.337V205.343V205.349V205.355V205.361V205.367V205.373V205.379V205.385V205.391V205.397V205.403V205.409V205.415V205.422V205.428V205.434V205.44V205.446V205.452V205.458V205.464V205.47V205.476V205.482V205.488V205.494V205.5V205.506V205.512V205.518V205.524V205.53V205.536V205.542V205.548V205.554V205.56V205.566V205.572V205.578V205.584V205.59V205.597V205.603V205.609V205.615V205.621V205.627V205.632V205.638V205.644V205.65V205.656V205.662V205.668V205.674V205.68V205.686V205.692V205.698V205.704V205.71V205.716V205.722V205.728V205.734V205.74V205.746V205.752V205.758V205.764V205.77V205.776V205.782V205.788V205.794V205.799V205.805V205.811V205.817V205.823V205.829V205.835V205.841V205.847V205.853V205.859V205.865V205.871V205.876V205.882V205.888V205.894V205.9V205.906V205.912V205.918V205.924V205.93V205.935V205.941V205.947V205.953V205.959V205.965V205.971V205.977V205.982V205.988V205.994V206C255.6 207.168 255.511 208.349 255.325 209.646ZM136.363 111.955L175.9 43.4987L215.435 111.95C203.07 106.528 189.694 103.7 175.9 103.7C162.186 103.7 148.752 106.529 136.363 111.955Z" fill="#FF0049" stroke="#FF0049" stroke-width="5"/>
</svg>
