<svg width="344" height="300" viewBox="0 0 344 300" fill="none" xmlns="http://www.w3.org/2000/svg">
<path d="M201.956 293.037L201.962 293.035C219.786 287.436 235.634 276.87 247.752 262.584L247.757 262.578L247.762 262.572C249.104 261.023 250.35 259.466 251.498 257.903L251.505 257.893L251.512 257.884C260.908 245.501 267.21 231.196 270.044 216.096L270.791 212.115L272.817 215.622L306.635 274.15L307.935 276.4H305.336H275C272.791 276.4 271 278.191 271 280.4V294C271 296.043 272.657 297.7 274.7 297.7H338.034C341.113 297.7 343.038 294.366 341.498 291.7L175.364 3.99984C173.824 1.33306 169.975 1.33373 168.436 4.00075L2.4014 291.701C0.862456 294.367 2.78695 297.7 5.86586 297.7H67C69.2091 297.7 71 295.909 71 293.7V280.4C71 278.191 69.2092 276.4 67 276.4H38.3637H35.7646L37.0649 274.15L70.8828 215.622L72.9091 212.115L73.6559 216.096C76.4892 231.198 82.7833 245.501 92.0849 257.88L92.09 257.887L92.095 257.893C93.2468 259.463 94.497 261.025 95.8442 262.58L95.8504 262.587C108.074 276.878 123.921 287.337 141.628 293.032C141.628 293.032 141.628 293.032 141.628 293.032L141.636 293.034L201.956 293.037ZM201.956 293.037C192.208 296.147 182.051 297.7 171.8 297.7M201.956 293.037L171.8 297.7M232.91 247.361L232.902 247.37C231.808 248.663 230.763 249.896 229.535 251.218L229.535 251.219C214.695 267.207 193.624 276.4 171.9 276.4C150.178 276.4 129.11 267.209 114.271 251.225L114.268 251.222C113.055 249.907 111.951 248.709 110.952 247.438C110.952 247.438 110.952 247.438 110.952 247.438L110.942 247.425L110.927 247.406L110.916 247.393C100.959 235.138 94.9311 220.408 93.4888 204.717L93.4878 204.706L93.4869 204.695C93.3878 203.407 93.29 202.133 93.1923 200.667L94.6889 200.567L93.1923 200.667L93.1884 200.609L93.1826 200.552C93.1031 199.756 93.1 198.935 93.1 197.7C93.1 185.184 96.1542 172.753 101.883 161.657L101.891 161.642L101.899 161.627C103.072 159.479 104.215 157.484 105.435 155.607L105.44 155.599L105.448 155.587L105.453 155.578C120.01 132.689 144.796 119.1 171.9 119.1C196.199 119.1 218.699 130.105 233.629 148.969L235.553 151.4H232.453H221.683H221.042L220.599 150.937C207.848 137.614 190.361 130.1 171.9 130.1C134.667 130.1 104.3 160.467 104.3 197.7C104.3 225.34 121.583 250.636 147.327 260.66L147.33 260.662C155.129 263.717 163.359 265.3 171.8 265.3C180.229 265.3 188.561 263.721 196.275 260.66L196.284 260.656C215.271 253.267 230.224 237.254 236.339 217.748L232.91 247.361ZM232.91 247.361L232.918 247.352C242.96 235.098 248.975 220.377 250.313 204.702L250.321 204.603L250.335 204.505C250.515 203.248 250.6 202.115 250.6 201V197.8C250.6 189.504 249.356 181.445 246.874 173.74L246.539 172.7H245.446H212.842C211.618 172.7 210.461 172.139 209.703 171.179L208.406 169.535L208.39 169.515L208.373 169.496C207.298 168.225 206.271 167.014 205.162 165.811L205.151 165.799L205.14 165.788C196.298 156.592 184.422 151.5 171.7 151.5C146.233 151.5 125.4 172.333 125.4 197.8C125.4 223.272 146.138 244.1 171.7 244.1C191.592 244.1 209.166 231.463 215.586 212.574L214.166 212.091L215.586 212.574L215.608 212.508L215.633 212.444L214.233 211.905L215.633 212.444C216.077 211.29 216.428 210.147 216.69 209.013L216.691 209.007L216.693 209L217.503 205.578C217.93 203.774 219.541 202.5 221.395 202.5H234.972C237.543 202.5 239.446 204.89 238.871 207.395L237.627 212.816L237.622 212.835L237.618 212.855C237.29 214.48 236.861 216.08 236.341 217.744L236.34 217.747L232.91 247.361ZM171.8 297.7C161.547 297.7 151.388 296.146 141.638 293.035L171.8 297.7ZM173.199 42.7472L171.9 40.4982L170.601 42.7472L136.817 101.243L134.782 104.765L138.617 103.407C149.229 99.6464 160.469 97.7 171.9 97.7C183.392 97.7 194.597 99.6437 205.177 103.397L209.014 104.758L206.978 101.233L173.199 42.7472Z" fill="white" stroke="#1F1F1F" stroke-width="3"/>
</svg>
