<svg xmlns="http://www.w3.org/2000/svg" viewBox="0 0 247.32 272.48"><defs><style>.cls-1{fill:#3d3d3d;}.cls-2{fill:#fff;}</style></defs><g id="Layer_2" data-name="Layer 2"><g id="five"><path class="cls-1" d="M247.32,183.19V89.29a42.35,42.35,0,0,0-21.17-36.67L144.82,5.67a42.34,42.34,0,0,0-42.33,0L21.17,52.62A42.35,42.35,0,0,0,0,89.29v93.9a42.32,42.32,0,0,0,21.17,36.66l81.32,47a42.34,42.34,0,0,0,42.33,0l81.33-47A42.32,42.32,0,0,0,247.32,183.19Z"/><path class="cls-2" d="M213.71,170.78a4.17,4.17,0,0,1,1.94,6.67,62.61,62.61,0,0,1-48.09,22.45c-1.71,0-3.4-.07-5.07-.2a62.79,62.79,0,0,1-50.05-32.53l0-.09-1-2L96.92,137.19,64.44,199.9H30.68L80,104.61l16.6-32,16.88,32.58h0l0,.08A62.77,62.77,0,0,1,201.3,84.29a3.72,3.72,0,0,1,.24,6.09l-18.77,14.37a5.22,5.22,0,0,1-4.8.84,33,33,0,0,0-11.13-1.65,33.26,33.26,0,0,0-28.9,48.37l.38.72a33.28,33.28,0,0,0,47,12.26,8.94,8.94,0,0,1,7.41-1Z"/></g></g></svg>