<svg width="227" height="250" viewBox="0 0 227 250" fill="none" xmlns="http://www.w3.org/2000/svg">
<g clip-path="url(#clip0_699_2)">
<path d="M226.916 168.077V81.9235C226.915 75.1042 225.12 68.4052 221.711 62.4995C218.301 56.5937 213.397 51.6893 207.492 48.2788L132.872 5.20228C126.968 1.79445 120.271 0.000427246 113.453 0.000427246C106.636 0.000427246 99.9388 1.79445 94.0344 5.20228L19.4234 48.2788C13.5183 51.6893 8.61461 56.5937 5.20516 62.4995C1.7957 68.4052 0.00052973 75.1042 1.76375e-07 81.9235V168.077C-0.000649607 174.895 1.79411 181.593 5.20376 187.498C8.61341 193.402 13.5177 198.305 19.4234 201.712L94.0344 244.835C99.9388 248.242 106.636 250.036 113.453 250.036C120.271 250.036 126.968 248.242 132.872 244.835L207.492 201.712C213.398 198.305 218.302 193.402 221.712 187.498C225.122 181.593 226.916 174.895 226.916 168.077V168.077Z" fill="white"/>
<path d="M196.079 156.69C196.681 156.879 197.227 157.213 197.668 157.664C198.11 158.115 198.433 158.667 198.609 159.273C198.785 159.879 198.809 160.519 198.678 161.136C198.547 161.753 198.266 162.328 197.859 162.81C192.461 169.265 185.712 174.456 178.088 178.015C170.463 181.575 162.15 183.416 153.736 183.408C152.167 183.408 150.617 183.344 149.084 183.224C139.555 182.451 130.367 179.318 122.35 174.107C114.334 168.897 107.74 161.773 103.164 153.378V153.296L102.246 151.461L88.924 125.872L59.1237 183.408H28.1489L73.4 95.9795L88.6304 66.6196L104.118 96.5117V96.5851C108.05 89.9292 113.282 84.1332 119.502 79.5423C125.721 74.9515 132.802 71.6598 140.321 69.8635C147.84 68.0673 155.643 67.8032 163.267 69.0869C170.89 70.3707 178.177 73.1761 184.693 77.3359C185.154 77.6327 185.537 78.0364 185.81 78.5127C186.082 78.9891 186.235 79.5241 186.257 80.0724C186.279 80.6207 186.168 81.1661 185.934 81.6625C185.7 82.1588 185.349 82.5913 184.913 82.9235L167.691 96.108C167.075 96.5849 166.352 96.9044 165.585 97.0387C164.817 97.173 164.029 97.1181 163.287 96.8787C159.995 95.7932 156.541 95.2811 153.076 95.3648C147.91 95.4775 142.858 96.8998 138.393 99.4983C133.927 102.097 130.195 105.787 127.545 110.222C124.895 114.657 123.415 119.692 123.242 124.856C123.07 130.019 124.211 135.142 126.56 139.744L126.908 140.405C128.903 144.075 131.629 147.298 134.918 149.873C138.207 152.447 141.99 154.32 146.032 155.374C150.074 156.429 154.289 156.642 158.417 156.002C162.545 155.362 166.498 153.882 170.031 151.653C171.031 151.019 172.156 150.608 173.33 150.45C174.503 150.291 175.697 150.389 176.83 150.736L196.079 156.69Z" fill="#3D3D3D"/>
</g>
<defs>
<clipPath id="clip0_699_2">
<rect width="226.916" height="250" fill="white"/>
</clipPath>
</defs>
</svg>
