<svg width="248" height="273" viewBox="0 0 248 273" fill="none" xmlns="http://www.w3.org/2000/svg">
<g clip-path="url(#clip0_699_8)">
<path d="M247.32 183.19V89.29C247.319 81.8576 245.363 74.5562 241.647 68.1194C237.931 61.6826 232.586 56.3371 226.15 52.62L144.82 5.67003C138.385 1.95577 131.085 0.000427246 123.655 0.000427246C116.225 0.000427246 108.925 1.95577 102.49 5.67003L21.17 52.62C14.7338 56.3371 9.38923 61.6826 5.6732 68.1194C1.95717 74.5562 0.000577364 81.8576 1.92235e-07 89.29V183.19C-0.000708019 190.621 1.95544 197.922 5.67168 204.357C9.38793 210.793 14.7332 216.136 21.17 219.85L102.49 266.85C108.925 270.564 116.225 272.52 123.655 272.52C131.085 272.52 138.385 270.564 144.82 266.85L226.15 219.85C232.587 216.136 237.932 210.793 241.648 204.357C245.365 197.922 247.321 190.621 247.32 183.19V183.19Z" fill="#FF0049"/>
<path d="M213.71 170.78C214.366 170.985 214.961 171.35 215.443 171.841C215.924 172.332 216.276 172.935 216.468 173.595C216.66 174.255 216.686 174.953 216.543 175.625C216.4 176.298 216.094 176.925 215.65 177.45C209.767 184.486 202.411 190.143 194.101 194.023C185.791 197.902 176.731 199.908 167.56 199.9C165.85 199.9 164.16 199.83 162.49 199.7C152.103 198.857 142.09 195.442 133.352 189.763C124.615 184.084 117.428 176.32 112.44 167.17V167.08L111.44 165.08L96.9199 137.19L64.4399 199.9H30.6799L79.9999 104.61L96.5999 72.61L113.48 105.19V105.27C117.766 98.0157 123.468 91.6984 130.247 86.6947C137.026 81.6911 144.743 78.1034 152.938 76.1456C161.133 74.1879 169.639 73.9 177.947 75.2992C186.256 76.6984 194.198 79.7561 201.3 84.29C201.803 84.6134 202.221 85.0534 202.517 85.5726C202.814 86.0918 202.982 86.6749 203.005 87.2725C203.029 87.8701 202.908 88.4646 202.653 89.0055C202.398 89.5465 202.016 90.0179 201.54 90.38L182.77 104.75C182.099 105.27 181.31 105.618 180.474 105.764C179.638 105.911 178.778 105.851 177.97 105.59C174.382 104.407 170.617 103.849 166.84 103.94C161.21 104.063 155.704 105.613 150.837 108.445C145.97 111.277 141.902 115.299 139.014 120.133C136.125 124.967 134.512 130.455 134.324 136.083C134.136 141.711 135.38 147.294 137.94 152.31L138.32 153.03C140.493 157.031 143.465 160.543 147.05 163.349C150.635 166.155 154.758 168.196 159.163 169.345C163.569 170.495 168.163 170.728 172.662 170.03C177.161 169.332 181.469 167.719 185.32 165.29C186.41 164.598 187.636 164.151 188.915 163.978C190.195 163.805 191.496 163.912 192.73 164.29L213.71 170.78Z" fill="white"/>
</g>
<defs>
<clipPath id="clip0_699_8">
<rect width="247.32" height="272.48" fill="white"/>
</clipPath>
</defs>
</svg>
