<svg width="775" height="443" viewBox="0 0 775 443" fill="none" xmlns="http://www.w3.org/2000/svg">
<path d="M673.987 128.446C673 127.388 673.132 126.83 674.655 126.83C674.452 127.349 674.23 127.888 673.987 128.446C685.97 141.298 862.925 227.992 718.688 287.293C562.571 351.478 608.606 349.472 598.598 393.6C588.591 437.727 534.55 463.802 420.465 421.681C306.379 379.559 286.364 351.478 170.277 363.513C54.1904 375.548 24.1679 387.582 46.1844 297.322C68.2009 207.061 116.237 255.2 68.2005 172.963C20.1645 90.7259 -45.8843 128.836 46.1844 68.6622C138.253 8.4886 94.22 -27.6156 212.309 26.5407C306.779 69.8657 385.105 40.5812 412.458 20.5233C483.845 35.901 626.619 69.4645 626.619 80.6969C626.619 94.7374 540.555 197.033 598.598 184.998C643.466 175.695 667.03 144.419 673.987 128.446Z" fill="url(#paint0_linear_726_49940)" fill-opacity="0.4"/>
<defs>
<linearGradient id="paint0_linear_726_49940" x1="57.2796" y1="109.195" x2="670.208" y2="263.586" gradientUnits="userSpaceOnUse">
<stop stop-color="#F869D5"/>
<stop offset="1" stop-color="#5650DE"/>
</linearGradient>
</defs>
</svg>
