<svg width="466" height="397" viewBox="0 0 466 397" fill="none" xmlns="http://www.w3.org/2000/svg">
<path d="M315.442 39.5122C346.715 54.4428 381.251 67.4733 408.444 92.1767C435.366 116.88 454.945 152.985 462.56 193.705C470.174 234.425 465.823 279.489 442.708 311.25C419.866 342.741 378.259 360.929 339.101 372.33C299.942 383.461 263.502 388.075 224.071 392.69C184.641 397.305 142.762 402.463 116.657 383.461C90.8226 364.729 81.0329 321.838 61.4535 285.461C41.8741 249.085 13.0488 219.223 3.53103 183.932C-5.98674 148.642 4.34684 107.65 27.1895 77.5175C50.3041 47.3847 86.1997 27.8391 121.551 15.0802C156.903 2.32125 191.711 -3.37956 223.528 2.04977C255.344 7.47911 283.897 24.5815 315.442 39.5122Z" fill="#FF0066" fill-opacity="0.2"/>
</svg>
